<?xml version="1.0" encoding="UTF-8"?>
<svg version="1.1" xmlns="http://www.w3.org/2000/svg" width="600" height="600">
<path d="M0 0 C198 0 396 0 600 0 C600 198 600 396 600 600 C402 600 204 600 0 600 C0 402 0 204 0 0 Z " fill="#FDFDFD" transform="translate(0,0)"/>
<path d="M0 0 C1.28109589 0.46787011 2.56234219 0.93532861 3.84375 1.40234375 C35.89226034 13.55519274 66.90693667 35.99529299 87 64 C87.763125 65.05832031 88.52625 66.11664063 89.3125 67.20703125 C99.83386915 82.20044986 108.30157639 98.59158049 114 116 C114.32774414 116.95592041 114.32774414 116.95592041 114.66210938 117.93115234 C124.22042197 145.99643236 126.15072052 177.80106088 121 207 C120.82758789 207.99966797 120.65517578 208.99933594 120.47753906 210.02929688 C111.04588805 262.84034771 83.80943973 309.20516525 47.609375 348.1796875 C45.93425283 349.91699923 45.93425283 349.91699923 45 352 C44.41210693 352.00410889 43.82421387 352.00821777 43.21850586 352.01245117 C22.92766781 352.25977977 6.98969657 355.49782646 -8.375 369.875 C-15.33270532 377.2936713 -22.76259626 389.07821205 -23.07421875 399.4765625 C-23.04972656 400.20617187 -23.02523438 400.93578125 -23 401.6875 C-23.24638599 404.99868737 -23.9126015 405.91230573 -26.30859375 408.31640625 C-29.1418886 410.52008002 -32.00974176 412.59159207 -34.97558594 414.609375 C-37.06753085 416.04638877 -39.11781035 417.52997005 -41.1640625 419.03125 C-45.74889751 422.39263847 -50.36866065 425.70305282 -55 429 C-55.89428711 429.63679688 -56.78857422 430.27359375 -57.70996094 430.9296875 C-60.44862466 432.87530188 -63.19202651 434.81400945 -65.9375 436.75 C-67.22539429 437.66313965 -67.22539429 437.66313965 -68.53930664 438.59472656 C-69.73994751 439.43729004 -69.73994751 439.43729004 -70.96484375 440.296875 C-71.6724585 440.79541992 -72.38007324 441.29396484 -73.10913086 441.80761719 C-75 443 -75 443 -78 444 C-80.2497173 442.51758055 -82.24548613 441.02227318 -84.3125 439.3125 C-84.92915527 438.81427734 -85.54581055 438.31605469 -86.18115234 437.80273438 C-88.1329226 436.2159615 -90.06877997 434.61170418 -92 433 C-92.60408691 432.49645996 -93.20817383 431.99291992 -93.83056641 431.47412109 C-101.07743189 425.40231569 -108.13731748 419.13784925 -115.0703125 412.7109375 C-117.0355503 410.89243746 -119.00590589 409.08408212 -120.9921875 407.2890625 C-130.14050309 399.00911696 -139.09401548 390.53645238 -147.09375 381.125 C-149.62253542 378.30602609 -152.30684975 375.66104974 -155 373 C-158.25178593 369.77902255 -161.48329935 366.57054535 -164.5 363.125 C-165.02564545 362.55470566 -165.55129089 361.98441132 -166.09286499 361.39683533 C-168 359 -168 359 -169.77944946 355.58424377 C-172.4206864 351.01111051 -175.30473388 347.54520799 -180 345 C-190.09053859 342.51009323 -200.98505962 343.30747309 -211.30850172 343.54321361 C-215.46149961 343.62177747 -219.61435821 343.61613725 -223.76797485 343.61854553 C-231.6238296 343.63479777 -239.47733628 343.71784337 -247.33236659 343.82906014 C-261.41041012 344.02641848 -275.48932346 344.11404058 -289.56856978 344.17009073 C-294.50507852 344.19246009 -299.44001958 344.24565241 -304.37593532 344.3247689 C-307.44410782 344.36994908 -310.51223255 344.39515096 -313.58065796 344.41583252 C-315.00054066 344.42992117 -316.42036835 344.45272435 -317.83995438 344.48498726 C-329.90280879 344.75304388 -329.90280879 344.75304388 -333.82876587 341.59767151 C-337.09287518 337.69248062 -337.34918221 335.28514843 -337.27734375 330.3203125 C-336.84203773 326.67845649 -335.43146136 324.68740466 -333 322 C-327.28500312 318.06017622 -321.42129933 318.59723481 -314.75244141 318.65942383 C-313.52261536 318.65898575 -312.29278931 318.65854767 -311.0256958 318.65809631 C-307.66643517 318.65982405 -304.30773263 318.67483376 -300.94857073 318.69581819 C-297.43320909 318.71461543 -293.91783944 318.71633782 -290.4024353 318.71989441 C-283.75144518 318.72920596 -277.1006036 318.75380757 -270.44967878 318.78394288 C-262.87533957 318.8175147 -255.30099315 318.83397987 -247.72659802 318.84902918 C-232.15097943 318.88035802 -216.5755089 318.93310105 -201 319 C-202.07955259 317.26847042 -203.16382512 315.53988316 -204.25 313.8125 C-204.85328125 312.84957031 -205.4565625 311.88664062 -206.078125 310.89453125 C-207.95971895 307.95794909 -207.95971895 307.95794909 -210.234375 305.26171875 C-212 303 -212 303 -212 301 C-211.41653445 300.99902319 -210.83306889 300.99804638 -210.23192257 300.99703997 C-175.65222211 300.93876996 -141.0725905 300.86497472 -106.49296844 300.77101372 C-102.3410971 300.75974553 -98.18922542 300.74860708 -94.03735352 300.73754883 C-92.79750734 300.7342433 -92.79750734 300.7342433 -91.53261376 300.730871 C-78.14840948 300.69549708 -64.76420526 300.67063348 -51.37997156 300.64965298 C-37.64685963 300.62789168 -23.91380837 300.59483813 -10.18074805 300.55129844 C-1.70647935 300.52478739 6.76771374 300.507088 15.24202185 300.50065396 C21.05290412 300.4953984 26.86369124 300.4791758 32.67452253 300.45433434 C36.02729408 300.44032486 39.37974985 300.43277177 42.73257256 300.43499184 C46.369324 300.4366398 50.00554797 300.41998487 53.64222717 300.39872742 C55.22833135 300.40599878 55.22833135 300.40599878 56.84647804 300.41341704 C63.06795663 300.35331141 68.88074896 300.08798035 73.55859375 295.45703125 C76.08117341 290.73700441 76.76440248 287.35081735 76 282 C74.4003626 279.07998949 73.67342374 277.7928606 71 276 C66.83824068 275.09696876 62.73127898 275.2083262 58.48721313 275.26501465 C57.20156098 275.25847697 55.91590882 275.25193929 54.59129751 275.2452035 C51.02423552 275.22790337 47.45821474 275.24803905 43.89124346 275.27428818 C40.04383208 275.29607825 36.1965172 275.28325917 32.34907532 275.27471924 C24.81204539 275.26344746 17.27542213 275.28409189 9.73846151 275.31529516 C0.96175387 275.3503611 -7.81487473 275.35321344 -16.5916415 275.35452634 C-32.25291399 275.35790335 -47.91400123 275.38954186 -63.57519531 275.4375 C-78.77150001 275.48400078 -93.96768723 275.51234717 -109.1640625 275.51953125 C-110.09969467 275.51997678 -111.03532683 275.52042232 -111.99931149 275.52088135 C-113.884169 275.52176656 -115.76902652 275.52265061 -117.65388403 275.52353349 C-118.58367792 275.52397263 -119.51347181 275.52441176 -120.47144127 275.5248642 C-121.86261321 275.52551216 -121.86261321 275.52551216 -123.28188964 275.5261732 C-137.76268446 275.53357852 -152.24346034 275.55629915 -166.72423434 275.58112499 C-171.9721145 275.5899907 -177.21999289 275.59686929 -182.46787761 275.60236925 C-190.79413662 275.61124124 -199.12032568 275.62681163 -207.44654058 275.65591806 C-211.25090554 275.66911576 -215.05520905 275.67926124 -218.85959816 275.68083954 C-222.98423258 275.68270707 -227.10865485 275.70009863 -231.23324585 275.71911621 C-232.43509407 275.71738325 -233.6369423 275.71565028 -234.87521017 275.7138648 C-245.13526093 275.70258813 -245.13526093 275.70258813 -253.9375 280.4375 C-256.26346872 283.47495258 -256.22069384 285.96492814 -256.12890625 289.72265625 C-256.11029541 290.71144775 -256.09168457 291.70023926 -256.07250977 292.71899414 C-256.04858154 293.47172607 -256.02465332 294.22445801 -256 295 C-275.97538562 295.14017619 -295.95067141 295.24597395 -315.92644691 295.31087303 C-325.20162016 295.34180813 -334.47648777 295.38398187 -343.75146484 295.45263672 C-351.83577662 295.51244954 -359.91986704 295.55115167 -368.00439394 295.56453097 C-372.28502388 295.57235166 -376.5650206 295.59072398 -380.84544754 295.63438034 C-384.87571105 295.67515166 -388.90508146 295.6876603 -392.93553162 295.67864609 C-394.41338838 295.68029475 -395.89127546 295.69220402 -397.3689537 295.71523285 C-409.9273656 295.9013244 -409.9273656 295.9013244 -413.87850952 292.11758423 C-416.59186584 288.13023809 -416.81878 286.07547434 -416.5234375 281.40625 C-415.64806523 277.3821506 -414.0792562 275.73711662 -411 273 C-407.26964914 271.15771123 -404.2622286 270.74834468 -400.12416077 270.74171448 C-398.94797684 270.73488647 -397.77179291 270.72805847 -396.55996704 270.72102356 C-395.2782663 270.72357651 -393.99656555 270.72612946 -392.67602539 270.72875977 C-391.30572704 270.72437021 -389.93543136 270.71906721 -388.56513977 270.71292114 C-385.61918062 270.70143825 -382.67329324 270.69596299 -379.72731209 270.69503975 C-375.06671252 270.69309608 -370.40626102 270.67502691 -365.74571228 270.65428162 C-354.17025823 270.605135 -342.59476405 270.57421193 -331.01922607 270.55297852 C-322.02134425 270.53644886 -313.02358964 270.51361948 -304.02579302 270.46995777 C-299.39518939 270.44820164 -294.76482758 270.44012163 -290.13417637 270.44235051 C-287.25050671 270.4406812 -284.36699434 270.42661719 -281.48338127 270.40913773 C-279.51412448 270.40088925 -277.54482299 270.4074613 -275.57556152 270.414505 C-274.39655777 270.40485718 -273.21755402 270.39520935 -272.00282288 270.38526917 C-270.47224794 270.38225217 -270.47224794 270.38225217 -268.9107523 270.37917423 C-264.46858751 269.80050788 -261.09600978 268.24214441 -258.125 264.875 C-256.32585674 260.27718945 -256.080312 255.44818354 -257.83203125 250.78515625 C-258.95125269 248.67139766 -258.95125269 248.67139766 -262 248 C-263.34464355 247.91094775 -264.69325861 247.87534863 -266.04084778 247.87542725 C-266.86088791 247.87286423 -267.68092804 247.87030121 -268.52581787 247.86766052 C-269.42197815 247.86976028 -270.31813843 247.87186005 -271.24145508 247.87402344 C-272.18810532 247.8721553 -273.13475555 247.87028717 -274.11009216 247.86836243 C-276.16772502 247.86435658 -278.22536232 247.86228342 -280.28299904 247.86190033 C-284.65684311 247.8584876 -289.03053815 247.8371291 -293.40433025 247.81666946 C-301.55025371 247.77862938 -309.69601862 247.74738589 -317.84204102 247.74951172 C-323.50616138 247.75029849 -329.16973722 247.72694916 -334.83371544 247.6876297 C-336.99182373 247.67716263 -339.14999482 247.67565083 -341.30811501 247.68328094 C-344.32946353 247.69289713 -347.34916181 247.67173015 -350.37036133 247.64355469 C-351.70549271 247.65884972 -351.70549271 247.65884972 -353.06759644 247.67445374 C-357.30878686 247.60359323 -360.14842251 247.32831915 -363.53935242 244.64727783 C-367.19698935 240.71222381 -367.34805736 237.36291686 -367.28125 232.21875 C-366.74144035 227.96025163 -364.1879514 225.9622954 -361.01057434 223.38847351 C-356.54109842 221.32715623 -352.38302976 221.60652551 -347.51831055 221.65942383 C-346.46419479 221.65898575 -345.41007904 221.65854767 -344.32402039 221.65809631 C-340.84473051 221.66018396 -337.36592431 221.68351458 -333.88671875 221.70703125 C-331.47248091 221.71262727 -329.05823966 221.71689734 -326.64399719 221.71989441 C-320.29322892 221.73134262 -313.94266685 221.76080992 -307.59197998 221.79400635 C-301.11017649 221.82470755 -294.62833964 221.83839987 -288.14648438 221.85351562 C-275.43090167 221.88567937 -262.71546181 221.93629811 -250 222 C-250.30417847 220.2821228 -250.30417847 220.2821228 -250.61450195 218.52954102 C-250.88494388 217.0001655 -251.15536944 215.47078709 -251.42578125 213.94140625 C-251.55891724 213.18976196 -251.69205322 212.43811768 -251.82922363 211.66369629 C-260.65968201 161.69655432 -249.92014693 112.76215071 -221 71 C-218.14764471 67.19205766 -215.14136465 63.57176514 -212 60 C-210.97519531 58.81083984 -210.97519531 58.81083984 -209.9296875 57.59765625 C-207.66483165 55.01939784 -205.34811776 52.50274114 -203 50 C-202.50935059 49.47535156 -202.01870117 48.95070312 -201.51318359 48.41015625 C-188.98071345 35.12197854 -174.91886969 23.9879532 -159 15 C-158.36658691 14.6395459 -157.73317383 14.2790918 -157.08056641 13.90771484 C-110.38634351 -12.45536938 -50.50559023 -19.26993813 0 0 Z " fill="#FD6D05" transform="translate(433,70)"/>
<path d="M0 0 C1.1240625 -0.01611328 2.248125 -0.03222656 3.40625 -0.04882812 C10.93169454 -0.05327579 15.32746452 0.94687672 21.5 5.375 C24.16962731 9.06536716 24.28611485 11.40918945 24.046875 15.875 C23.22666033 20.61401807 20.96267588 23.31781794 17.1875 26.125 C14.63943628 27.30581002 12.39739893 27.91644301 9.625 28.3125 C9.625 30.6225 9.625 32.9325 9.625 35.3125 C10.34042969 35.38766846 11.05585938 35.46283691 11.79296875 35.5402832 C15.07157825 35.89099475 18.34819051 36.25786583 21.625 36.625 C22.75035156 36.74294922 23.87570312 36.86089844 25.03515625 36.98242188 C31.39882439 37.70810333 36.72588475 38.83697842 42.625 41.3125 C44.28512192 41.73494174 45.95154381 42.13393146 47.625 42.5 C55.48632292 44.58254186 62.5004488 48.47985682 69.625 52.3125 C70.69234375 52.88226563 71.7596875 53.45203125 72.859375 54.0390625 C91.74177396 64.57923758 108.2918697 79.87255258 119.625 98.3125 C120.223125 99.22644531 120.82125 100.14039063 121.4375 101.08203125 C135.94059099 124.22870548 140.37750579 150.49137449 141.625 177.3125 C142.31207031 177.49425781 142.99914062 177.67601562 143.70703125 177.86328125 C144.60808594 178.11464844 145.50914062 178.36601562 146.4375 178.625 C147.33082031 178.86863281 148.22414063 179.11226562 149.14453125 179.36328125 C151.74240209 180.3574271 152.97991626 181.08898359 154.625 183.3125 C155.4271148 188.83817976 155.4271148 188.83817976 154.625 191.3125 C151.91962822 194.39468623 150.14935769 196.03504848 146.07217681 196.77714467 C142.82491159 196.95922665 139.61047652 196.97853306 136.35813904 196.94741821 C135.11105685 196.95521817 133.86397466 196.96301812 132.5791021 196.97105443 C129.12460156 196.99190837 125.67079251 196.98161999 122.21628964 196.96612334 C118.48820085 196.95480763 114.76023073 196.9722735 111.03216553 196.98602295 C103.73197583 197.00825701 96.43204315 197.0034537 89.13184338 196.98895974 C83.19951315 196.97766899 77.26725496 196.97613588 71.33491707 196.98157883 C70.49068844 196.98234499 69.64645982 196.98311116 68.77664851 196.98390054 C67.06164135 196.98549916 65.34663421 196.98712022 63.63162709 196.9887635 C47.5500848 197.00302126 31.46868501 196.98662741 15.38716609 196.95976166 C1.58559472 196.93741878 -12.2157664 196.9413063 -26.01733398 196.96435547 C-42.04276728 196.99110603 -58.06807571 197.00165224 -74.09352821 196.98629415 C-75.80192973 196.98470139 -77.51033127 196.98312954 -79.21873283 196.98157883 C-80.47960305 196.98042176 -80.47960305 196.98042176 -81.76594539 196.97924132 C-87.69232234 196.97492238 -93.61862013 196.98221495 -99.54498482 196.99397659 C-106.76554375 197.00799171 -113.98583087 197.0042225 -121.20635862 196.97757287 C-124.89113178 196.96442173 -128.57545156 196.95930384 -132.26022148 196.97581863 C-136.25211225 196.99343953 -140.24325875 196.97241685 -144.23512268 196.94741821 C-145.40320499 196.95857182 -146.57128729 196.96972543 -147.77476603 196.98121703 C-155.58040923 196.88598299 -155.58040923 196.88598299 -159.59077358 193.99156761 C-161.97876155 190.40593456 -162.20442976 188.53505153 -161.375 184.3125 C-157.13896928 179.54696544 -153.47954764 178.70620354 -147.375 177.3125 C-147.27703125 176.16136719 -147.1790625 175.01023437 -147.078125 173.82421875 C-143.66311704 136.35852021 -130.58375737 104.50740454 -104.375 77.3125 C-103.59769531 76.46042969 -102.82039063 75.60835938 -102.01953125 74.73046875 C-78.72774273 49.95612083 -43.68732808 37.39901731 -10.375 35.3125 C-10.375 33.0025 -10.375 30.6925 -10.375 28.3125 C-11.6125 27.94125 -12.85 27.57 -14.125 27.1875 C-17.22295515 25.99555626 -18.47892948 25.20597228 -20.875 22.75 C-22.89330644 18.12471441 -23.42565326 14.27566057 -22.375 9.3125 C-17.04728801 -0.0539614 -9.88674227 -0.02815132 0 0 Z " fill="#FDFCFC" transform="translate(365.375,130.6875)"/>
<path d="M0 0 C6.98939881 5.64639449 12.56860162 12.74685534 14.890625 21.52734375 C15.99705357 36.46412951 13.07681922 49.54761027 3.55859375 61.44140625 C-6.22159914 71.63744987 -18.242517 78.47077792 -32.55639648 78.94921875 C-43.89386972 79.0282858 -52.23733425 76.74801925 -61.109375 69.52734375 C-69.01291145 61.71570888 -73.25617948 53.93846701 -73.54003906 42.7644043 C-73.57292824 31.0993175 -71.41202197 21.97782807 -64.109375 12.52734375 C-63.64144531 11.90472656 -63.17351562 11.28210938 -62.69140625 10.640625 C-47.92887628 -7.76870573 -19.73364193 -14.51629415 0 0 Z " fill="#292E36" transform="translate(491.109375,437.47265625)"/>
<path d="M0 0 C6.63235566 5.61619573 12.129427 13.27821798 13.26611328 22.0546875 C14.52399392 38.03222431 10.49389977 49.9224918 0.15625 62.1875 C-8.54594182 71.60298623 -21.16780503 77.19494779 -33.91015625 78.23828125 C-44.97212556 78.49872415 -54.39913719 76.33392406 -62.96484375 69.04296875 C-71.54913061 60.42572878 -75.04768355 51.59808287 -75.4375 39.5625 C-75.14032043 26.71917411 -69.59446586 15.6311335 -60.875 6.3125 C-43.41427455 -10.26785274 -20.30426854 -12.73457489 0 0 Z " fill="#2A2F37" transform="translate(252,438)"/>
<path d="M0 0 C0.99 0.495 0.99 0.495 2 1 C0.68 2.32 -0.64 3.64 -2 5 C7.33581869 5.1306289 16.67164048 5.26103379 26.00746632 5.39115143 C30.34230006 5.45157504 34.67713269 5.51207628 39.01196289 5.57275391 C43.19406066 5.63129079 47.37616121 5.6896251 51.55826378 5.74781799 C53.15507801 5.77007305 54.75189122 5.79240153 56.34870338 5.81480408 C58.58248255 5.84613054 60.81626518 5.87719769 63.05004883 5.90820312 C64.95866447 5.93485046 64.95866447 5.93485046 66.90583801 5.96203613 C68.93711187 5.98695888 70.96857325 6 73 6 C74.19625 6.495 75.3925 6.99 76.625 7.5 C87.16753473 11.11753643 99.69998765 9.73736949 110 6 C109.67 6.66 109.34 7.32 109 8 C108.01 8 107.02 8 106 8 C106 8.66 106 9.32 106 10 C106.55872803 10.04487549 107.11745605 10.08975098 107.69311523 10.13598633 C110.27567165 10.35002212 112.85643746 10.58116977 115.4375 10.8125 C116.75524414 10.91788086 116.75524414 10.91788086 118.09960938 11.02539062 C130.17588524 12.13943821 130.17588524 12.13943821 135 15 C135.74389648 17.10473633 135.74389648 17.10473633 136 19 C128.41362328 21.56875058 120.92537782 22.93856547 113 24 C111.865625 24.1753125 110.73125 24.350625 109.5625 24.53125 C99.41299163 25.99346731 89.29953401 26.38798493 79.05224609 26.65844727 C77.92512207 26.68994873 76.79799805 26.7214502 75.63671875 26.75390625 C74.62311279 26.77783447 73.60950684 26.8017627 72.56518555 26.82641602 C69.88067531 26.90007707 69.88067531 26.90007707 67 28 C63.99802589 28.2370421 61.01624618 28.41899536 58.00927734 28.55200195 C57.08306265 28.59404157 56.15684795 28.63608118 55.20256615 28.67939472 C43.08946459 29.17955507 30.97297297 29.16434952 18.8515625 29.16796875 C16.262156 29.17119626 13.67274966 29.17456134 11.08334351 29.17805481 C5.67599997 29.1840033 0.26867427 29.18594305 -5.13867188 29.18530273 C-10.59736087 29.18477281 -16.05597778 29.19177161 -21.51464844 29.20581055 C-73.98159327 29.33776394 -73.98159327 29.33776394 -98.1015625 28.05078125 C-98.91344402 28.0075643 -99.72532555 27.96434734 -100.56180954 27.91982079 C-113.72252463 27.19427488 -113.72252463 27.19427488 -118 26 C-119.43639712 25.89110286 -120.87629502 25.82333963 -122.31640625 25.7890625 C-123.15421631 25.76279785 -123.99202637 25.7365332 -124.85522461 25.70947266 C-125.74862549 25.68159668 -126.64202637 25.6537207 -127.5625 25.625 C-134.92277629 25.33097414 -142.15547321 24.74775089 -149.4375 23.625 C-150.21101807 23.5110791 -150.98453613 23.3971582 -151.78149414 23.27978516 C-156.32636513 22.52923762 -159.94339454 21.30152893 -164 19 C-164 17.68 -164 16.36 -164 15 C-157.46861236 10.36253777 -151.49339613 9.29198112 -143.609375 8.46875 C-139.08791163 7.88154697 -135.26703082 6.56457797 -131 5 C-130.01 5 -129.02 5 -128 5 C-128.33 6.65 -128.66 8.3 -129 10 C-127.52031676 9.85950482 -126.04125484 9.71245174 -124.5625 9.5625 C-123.73878906 9.48128906 -122.91507813 9.40007813 -122.06640625 9.31640625 C-120.01337975 9.21069185 -120.01337975 9.21069185 -119 8 C-114.39771282 7.41934652 -109.75454734 7.21078505 -105.125 6.9375 C-104.38310425 6.89264465 -103.6412085 6.84778931 -102.87683105 6.80157471 C-73.98545794 5.13299574 -44.92750389 5.83083107 -16 6 C-15.67 5.34 -15.34 4.68 -15 4 C-13.02 5.485 -13.02 5.485 -11 7 C-6.95579349 5.22054913 -3.53921513 2.60470327 0 0 Z " fill="#E6E6E6" transform="translate(366,506)"/>
<path d="M0 0 C0 0.66 0 1.32 0 2 C-0.55397461 2.16943115 -1.10794922 2.3388623 -1.67871094 2.51342773 C-29.36708907 11.31190537 -50.31422047 31.53559692 -65 56 C-65.60457031 56.99128906 -66.20914062 57.98257813 -66.83203125 59.00390625 C-73.31120951 70.74848531 -77.02369279 85.03025091 -79.45703125 98.17871094 C-80 100 -80 100 -82.25 102.5625 C-85.50739174 104.2652275 -87.37456686 104.55169635 -91 104 C-93.31946842 102.33064387 -93.92797717 101.35285602 -94.50390625 98.53125 C-94.96125925 74.87085477 -81.06852216 51.01593977 -65.1953125 34.2578125 C-64.47085937 33.51273438 -63.74640625 32.76765625 -63 32 C-62.31679688 31.25492188 -61.63359375 30.50984375 -60.9296875 29.7421875 C-46.29231422 14.24061506 -22.03298382 -0.7666545 0 0 Z " fill="#FC700E" transform="translate(337,190)"/>
<path d="M0 0 C4.03026317 2.34664122 7.65848478 4.84763817 9.80078125 9.04296875 C10.59439203 15.51956249 10.68227316 21.55534226 6.80078125 27.04296875 C2.42326154 32.48170536 -3.71908623 36.11884901 -10.56640625 37.53125 C-15.62556135 37.83760022 -19.34548542 36.5779245 -23.46875 33.65625 C-27.50772425 29.89079545 -29.37460044 25.4014838 -29.63671875 19.91796875 C-28.91828304 13.55468103 -25.9978292 8.31476278 -21.19921875 4.04296875 C-14.64604233 -0.32964109 -7.62575673 -3.31849094 0 0 Z " fill="#F6F6F7" transform="translate(471.19921875,454.95703125)"/>
<path d="M0 0 C5.8604255 4.2344791 5.8604255 4.2344791 7.6875 7.8125 C8.48111078 14.28909374 8.56899191 20.32487351 4.6875 25.8125 C0.28504714 31.28221416 -5.8314756 34.82164642 -12.6796875 36.3359375 C-18.1506926 36.73348458 -21.36661929 34.97310871 -25.5859375 31.61328125 C-29.39759633 27.63777283 -30.74292073 24.37559514 -30.75 18.875 C-30.55479064 12.48774968 -29.00324081 9.45830151 -24.44140625 4.97265625 C-17.28142481 -1.64592773 -9.15537537 -5.4317339 0 0 Z " fill="#F7F7F8" transform="translate(232.3125,456.1875)"/>
<path d="M0 0 C1.04439145 0.01013972 2.0887829 0.02027945 3.16482258 0.03072643 C4.96322338 0.03716167 4.96322338 0.03716167 6.79795551 0.04372692 C8.77348408 0.07393177 8.77348408 0.07393177 10.78892231 0.10474682 C12.18835248 0.11545404 13.58779336 0.12483122 14.98724079 0.13297558 C18.78880802 0.15887913 22.5899569 0.20343041 26.39130282 0.25127339 C30.3630515 0.29810857 34.33492672 0.32787346 38.30682087 0.35943127 C45.82922122 0.42180199 53.35138072 0.4995755 60.87357551 0.58285159 C69.43686213 0.67690566 78.00027561 0.75383669 86.563743 0.82931292 C104.18043479 0.98496651 121.79685148 1.16217717 139.41318989 1.35352612 C139.41318989 1.68352612 139.41318989 2.01352612 139.41318989 2.35352612 C91.56318989 2.68352612 43.71318989 3.01352612 -5.58681011 3.35352612 C-2.58681011 0.35352612 -2.58681011 0.35352612 0 0 Z " fill="#FB710C" transform="translate(26.58681011199951,341.6464738845825)"/>
<path d="M0 0 C0.33 0 0.66 0 1 0 C1.495 4.455 1.495 4.455 2 9 C-31 9 -64 9 -98 9 C-98 8.67 -98 8.34 -98 8 C-96.80174591 7.98969254 -95.60349182 7.97938507 -94.368927 7.96876526 C-83.09693057 7.87116611 -71.82499101 7.76844504 -60.55308723 7.66066074 C-54.75757911 7.60540883 -48.96206596 7.55198521 -43.16650391 7.50268555 C-37.57736581 7.45507546 -31.98829052 7.40273389 -26.39922714 7.34705925 C-24.26292349 7.32662047 -22.12660261 7.30790995 -19.99026871 7.29092598 C-17.00663245 7.26691568 -14.02311564 7.23685653 -11.03955078 7.20532227 C-10.14907043 7.1995668 -9.25859009 7.19381134 -8.34112549 7.18788147 C-4.03426974 7.26194673 -4.03426974 7.26194673 0 6 C0 4.02 0 2.04 0 0 Z " fill="#FC6C0C" transform="translate(175,356)"/>
<path d="M0 0 C0 0.66 0 1.32 0 2 C-0.556875 2.17015625 -1.11375 2.3403125 -1.6875 2.515625 C-5.77362991 3.81324734 -9.6221079 5.22029783 -13.4375 7.1875 C-17 9 -17 9 -19 9 C-19 8.34 -19 7.68 -19 7 C-19.66 6.67 -20.32 6.34 -21 6 C-21 5.34 -21 4.68 -21 4 C-18.62734939 3.32382476 -16.25244645 2.65891774 -13.875 2 C-13.20984375 1.80921875 -12.5446875 1.6184375 -11.859375 1.421875 C-7.8013795 0.30791545 -4.20314026 -0.20950232 0 0 Z " fill="#FD7F21" transform="translate(337,190)"/>
<path d="M0 0 C0.33 0 0.66 0 1 0 C1.495 4.455 1.495 4.455 2 9 C-8.89 9 -19.78 9 -31 9 C-31 8.67 -31 8.34 -31 8 C-30.13197754 7.97494385 -29.26395508 7.9498877 -28.36962891 7.92407227 C-25.15286837 7.82900516 -21.93627151 7.72976797 -18.71972656 7.62768555 C-17.3268741 7.58434154 -15.93396869 7.54266604 -14.54101562 7.50268555 C-12.54023349 7.44497068 -10.53964141 7.38078131 -8.5390625 7.31640625 C-7.33459473 7.27974854 -6.13012695 7.24309082 -4.88916016 7.20532227 C-2.06003633 7.18947013 -2.06003633 7.18947013 0 6 C0 4.02 0 2.04 0 0 Z " fill="#FC6D0F" transform="translate(175,356)"/>
<path d="M0 0 C0.33 0.99 0.66 1.98 1 3 C-2.96 6.96 -6.92 10.92 -11 15 C-11.99 14.67 -12.98 14.34 -14 14 C-9.38 9.38 -4.76 4.76 0 0 Z " fill="#FB6F12" transform="translate(239,111)"/>
<path d="M0 0 C1.19923096 0.05760498 2.39846191 0.11520996 3.6340332 0.17456055 C4.93276367 0.2293457 6.23149414 0.28413086 7.56958008 0.34057617 C8.94134279 0.41380894 10.31308743 0.487381 11.68481445 0.5612793 C13.06821366 0.62455092 14.45167794 0.68641657 15.83520508 0.74682617 C19.22347025 0.9003016 22.61040366 1.06819044 25.99731445 1.2487793 C25.99731445 1.5787793 25.99731445 1.9087793 25.99731445 2.2487793 C10.15731445 2.7437793 10.15731445 2.7437793 -6.00268555 3.2487793 C-3.00268555 0.2487793 -3.00268555 0.2487793 0 0 Z " fill="#FD7716" transform="translate(27.002685546875,341.751220703125)"/>
<path d="M0 0 C0 0.33 0 0.66 0 1 C-3.63 1.33 -7.26 1.66 -11 2 C-11 2.66 -11 3.32 -11 4 C-14.63 4 -18.26 4 -22 4 C-15.68598198 -0.20934535 -7.41145544 -0.27967756 0 0 Z " fill="#FD9148" transform="translate(350,61)"/>
<path d="M0 0 C-0.5625 1.8125 -0.5625 1.8125 -2 4 C-5.5 5.5 -5.5 5.5 -9 7 C-10.4818964 9.0351761 -10.4818964 9.0351761 -11 11 C-11 8.69 -11 6.38 -11 4 C-9.5437455 3.32880451 -8.08492133 2.66318193 -6.625 2 C-5.81289063 1.62875 -5.00078125 1.2575 -4.1640625 0.875 C-2 0 -2 0 0 0 Z " fill="#FC8736" transform="translate(385,155)"/>
<path d="M0 0 C0.66 0.66 1.32 1.32 2 2 C-2 5 -6 8 -10 11 C-10.66 10.67 -11.32 10.34 -12 10 C-10.37744772 8.51814875 -8.75188112 7.03959744 -7.125 5.5625 C-6.22007812 4.73878906 -5.31515625 3.91507812 -4.3828125 3.06640625 C-2 1 -2 1 0 0 Z " fill="#FC761E" transform="translate(252,100)"/>
<path d="M0 0 C3.3 0 6.6 0 10 0 C10 0.66 10 1.32 10 2 C7.36 2.99 4.72 3.98 2 5 C1.34 3.35 0.68 1.7 0 0 Z " fill="#FB7213" transform="translate(221,371)"/>
<path d="M0 0 C-1.55500981 3.81684226 -4.03595495 6.19195732 -7 9 C-7.99 8.67 -8.98 8.34 -10 8 C-8.71451591 6.66070495 -7.42141845 5.32871357 -6.125 4 C-5.04605469 2.88625 -5.04605469 2.88625 -3.9453125 1.75 C-2 0 -2 0 0 0 Z " fill="#31373E" transform="translate(198,440)"/>
<path d="M0 0 C1 4 1 4 0.00390625 6.140625 C-0.47175781 6.83671875 -0.94742187 7.5328125 -1.4375 8.25 C-1.91058594 8.95640625 -2.38367188 9.6628125 -2.87109375 10.390625 C-3.24363281 10.92171875 -3.61617188 11.4528125 -4 12 C-4.99 11.67 -5.98 11.34 -7 11 C-4.69 7.37 -2.38 3.74 0 0 Z " fill="#FC771D" transform="translate(264,233)"/>
<path d="M0 0 C0.33 0.66 0.66 1.32 1 2 C-3.0527516 2.98248524 -6.83861737 3.08159574 -11 3 C-10.67 2.34 -10.34 1.68 -10 1 C-6.6322481 0.06451336 -3.4815554 -0.09947301 0 0 Z " fill="#DFE0E2" transform="translate(231,514)"/>
<path d="M0 0 C0.66 0.99 1.32 1.98 2 3 C0.35 4.98 -1.3 6.96 -3 9 C-3.66 8.34 -4.32 7.68 -5 7 C-3.35 4.69 -1.7 2.38 0 0 Z " fill="#FB751D" transform="translate(219,132)"/>
<path d="M0 0 C0.66 0 1.32 0 2 0 C0.54955729 4.10958767 -1.51110752 7.43258745 -4 11 C-4.33 10.34 -4.66 9.68 -5 9 C-4.00390625 6.8359375 -4.00390625 6.8359375 -2.5625 4.375 C-2.08941406 3.55773437 -1.61632812 2.74046875 -1.12890625 1.8984375 C-0.75636719 1.27195312 -0.38382812 0.64546875 0 0 Z " fill="#FCE6D2" transform="translate(418,447)"/>
<path d="M0 0 C-1.4638611 4.39158329 -3.97831338 4.87947433 -8 7 C-8 6.01 -8 5.02 -8 4 C-2.74285714 0 -2.74285714 0 0 0 Z " fill="#FE7815" transform="translate(379,496)"/>
<path d="M0 0 C0.66 0.33 1.32 0.66 2 1 C1.01 2.32 0.02 3.64 -1 5 C-0.01 5.33 0.98 5.66 2 6 C-0.31 5.67 -2.62 5.34 -5 5 C-5 4.34 -5 3.68 -5 3 C-2.625 1.3125 -2.625 1.3125 0 0 Z " fill="#F2F2F3" transform="translate(477,511)"/>
<path d="M0 0 C0.33 0 0.66 0 1 0 C1.33 2.97 1.66 5.94 2 9 C0.02 9 -1.96 9 -4 9 C-3.34 8.01 -2.68 7.02 -2 6 C-1.34 6 -0.68 6 0 6 C0 4.02 0 2.04 0 0 Z " fill="#FB8128" transform="translate(175,356)"/>
<path d="M0 0 C0.33 0 0.66 0 1 0 C1.33 3.96 1.66 7.92 2 12 C0.68 11.34 -0.64 10.68 -2 10 C-1.34 6.7 -0.68 3.4 0 0 Z " fill="#FD7414" transform="translate(217,296)"/>
<path d="M0 0 C-1.15173355 2.46800047 -2.04783565 4.04783565 -4 6 C-4.99 5.67 -5.98 5.34 -7 5 C-2.25 0 -2.25 0 0 0 Z " fill="#3D4348" transform="translate(436,442)"/>
<path d="M0 0 C0 0.66 0 1.32 0 2 C-5.41538462 3.23076923 -5.41538462 3.23076923 -8.375 2.0625 C-8.91125 1.711875 -9.4475 1.36125 -10 1 C-6.61981469 -0.04005702 -3.5219721 -0.08004482 0 0 Z " fill="#FD9C59" transform="translate(337,190)"/>
<path d="M0 0 C-0.33 0.99 -0.66 1.98 -1 3 C-3.31 2.67 -5.62 2.34 -8 2 C-4.77208445 -0.1519437 -3.71599191 -0.20086443 0 0 Z " fill="#FD8230" transform="translate(324,66)"/>
</svg>
